<svg xmlns="http://www.w3.org/2000/svg" xmlns:xlink="http://www.w3.org/1999/xlink" width="500" zoomAndPan="magnify" viewBox="0 0 375 374.999991" height="500" preserveAspectRatio="xMidYMid meet" version="1.2"><defs><clipPath id="909362e80b"><path d="M 125 85.074219 L 358.453125 85.074219 L 358.453125 232 L 125 232 Z M 125 85.074219 "/></clipPath><clipPath id="8fb023fdbb"><path d="M 158 237 L 211 237 L 211 289.824219 L 158 289.824219 Z M 158 237 "/></clipPath><clipPath id="8f386738b6"><path d="M 232 237 L 285 237 L 285 289.824219 L 232 289.824219 Z M 232 237 "/></clipPath><clipPath id="5bc3c9ba07"><path d="M 16.453125 173 L 151 173 L 151 190 L 16.453125 190 Z M 16.453125 173 "/></clipPath></defs><g id="04f74d2a20"><g clip-rule="nonzero" clip-path="url(#909362e80b)"><path style=" stroke:none;fill-rule:nonzero;fill:#000000;fill-opacity:1;" d="M 358.390625 125.097656 L 334.746094 223.292969 C 334.746094 223.761719 334.699219 224.222656 334.605469 224.683594 C 334.515625 225.140625 334.378906 225.585938 334.199219 226.015625 C 334.019531 226.445312 333.800781 226.855469 333.539062 227.246094 C 333.28125 227.632812 332.984375 227.992188 332.65625 228.324219 C 332.324219 228.652344 331.964844 228.949219 331.578125 229.207031 C 331.191406 229.46875 330.78125 229.6875 330.347656 229.867188 C 329.917969 230.046875 329.472656 230.183594 329.015625 230.273438 C 328.558594 230.367188 328.09375 230.414062 327.628906 230.414062 L 168.324219 231.570312 C 167.859375 231.566406 167.394531 231.519531 166.9375 231.429688 C 166.480469 231.335938 166.035156 231.199219 165.605469 231.019531 C 165.171875 230.84375 164.761719 230.621094 164.375 230.363281 C 163.988281 230.101562 163.628906 229.808594 163.296875 229.476562 C 162.96875 229.148438 162.671875 228.789062 162.410156 228.398438 C 162.152344 228.011719 161.933594 227.601562 161.753906 227.171875 C 161.574219 226.738281 161.4375 226.292969 161.34375 225.835938 C 161.253906 225.378906 161.207031 224.917969 161.203125 224.449219 L 161.203125 125.085938 C 161.203125 124.890625 161.210938 124.695312 161.230469 124.503906 L 159.078125 105.277344 L 135.527344 105.277344 C 134.882812 105.253906 134.246094 105.164062 133.617188 105.015625 C 132.988281 104.871094 132.378906 104.664062 131.789062 104.398438 C 131.203125 104.132812 130.644531 103.816406 130.113281 103.441406 C 129.585938 103.070312 129.097656 102.652344 128.652344 102.1875 C 128.203125 101.71875 127.804688 101.214844 127.453125 100.675781 C 127.105469 100.132812 126.808594 99.5625 126.566406 98.960938 C 126.324219 98.363281 126.144531 97.746094 126.019531 97.113281 C 125.898438 96.480469 125.835938 95.839844 125.835938 95.191406 C 125.835938 94.546875 125.898438 93.90625 126.019531 93.273438 C 126.144531 92.640625 126.324219 92.023438 126.566406 91.425781 C 126.808594 90.824219 127.105469 90.253906 127.453125 89.710938 C 127.804688 89.167969 128.203125 88.664062 128.652344 88.199219 C 129.097656 87.734375 129.585938 87.316406 130.113281 86.945312 C 130.644531 86.570312 131.203125 86.253906 131.789062 85.988281 C 132.378906 85.722656 132.988281 85.515625 133.617188 85.367188 C 134.246094 85.222656 134.882812 85.132812 135.527344 85.109375 L 177.09375 85.109375 C 177.097656 85.144531 177.097656 85.179688 177.09375 85.214844 L 179.34375 105.289062 L 180.765625 117.972656 L 351.269531 117.972656 C 351.738281 117.976562 352.199219 118.023438 352.65625 118.113281 C 353.117188 118.207031 353.558594 118.34375 353.992188 118.523438 C 354.421875 118.703125 354.832031 118.921875 355.222656 119.183594 C 355.609375 119.441406 355.96875 119.738281 356.296875 120.066406 C 356.628906 120.398438 356.925781 120.757812 357.183594 121.148438 C 357.445312 121.535156 357.664062 121.945312 357.84375 122.375 C 358.023438 122.808594 358.15625 123.253906 358.25 123.710938 C 358.34375 124.167969 358.386719 124.632812 358.390625 125.097656 Z M 358.390625 125.097656 "/></g><g clip-rule="nonzero" clip-path="url(#8fb023fdbb)"><path style=" stroke:none;fill-rule:nonzero;fill:#000000;fill-opacity:1;" d="M 210.773438 263.859375 C 210.773438 264.710938 210.730469 265.558594 210.648438 266.402344 C 210.566406 267.25 210.441406 268.089844 210.273438 268.921875 C 210.109375 269.757812 209.902344 270.578125 209.65625 271.394531 C 209.410156 272.207031 209.125 273.003906 208.796875 273.789062 C 208.472656 274.574219 208.109375 275.34375 207.710938 276.09375 C 207.308594 276.839844 206.871094 277.570312 206.402344 278.277344 C 205.929688 278.984375 205.421875 279.664062 204.882812 280.320312 C 204.34375 280.976562 203.773438 281.605469 203.171875 282.207031 C 202.574219 282.808594 201.945312 283.378906 201.289062 283.917969 C 200.628906 284.457031 199.949219 284.960938 199.242188 285.433594 C 198.535156 285.90625 197.808594 286.34375 197.058594 286.742188 C 196.308594 287.144531 195.542969 287.507812 194.757812 287.832031 C 193.972656 288.15625 193.171875 288.445312 192.359375 288.691406 C 191.546875 288.9375 190.722656 289.144531 189.886719 289.308594 C 189.054688 289.476562 188.214844 289.597656 187.371094 289.683594 C 186.523438 289.765625 185.675781 289.808594 184.828125 289.808594 C 183.976562 289.808594 183.128906 289.765625 182.285156 289.683594 C 181.4375 289.597656 180.597656 289.476562 179.765625 289.308594 C 178.929688 289.144531 178.109375 288.9375 177.292969 288.691406 C 176.480469 288.445312 175.683594 288.15625 174.898438 287.832031 C 174.113281 287.507812 173.34375 287.144531 172.59375 286.742188 C 171.847656 286.34375 171.117188 285.90625 170.410156 285.433594 C 169.703125 284.960938 169.023438 284.457031 168.367188 283.917969 C 167.710938 283.378906 167.082031 282.808594 166.480469 282.207031 C 165.878906 281.605469 165.308594 280.976562 164.769531 280.320312 C 164.230469 279.664062 163.722656 278.984375 163.253906 278.277344 C 162.78125 277.570312 162.34375 276.839844 161.941406 276.09375 C 161.542969 275.34375 161.179688 274.574219 160.855469 273.789062 C 160.53125 273.003906 160.242188 272.207031 159.996094 271.394531 C 159.75 270.578125 159.542969 269.757812 159.378906 268.921875 C 159.210938 268.089844 159.085938 267.25 159.003906 266.402344 C 158.921875 265.558594 158.878906 264.710938 158.878906 263.859375 C 158.878906 263.011719 158.921875 262.164062 159.003906 261.316406 C 159.085938 260.472656 159.210938 259.632812 159.378906 258.796875 C 159.542969 257.964844 159.75 257.140625 159.996094 256.328125 C 160.242188 255.515625 160.53125 254.714844 160.855469 253.929688 C 161.179688 253.144531 161.542969 252.378906 161.941406 251.628906 C 162.34375 250.878906 162.78125 250.152344 163.253906 249.445312 C 163.722656 248.738281 164.230469 248.058594 164.769531 247.398438 C 165.308594 246.742188 165.878906 246.113281 166.480469 245.511719 C 167.082031 244.914062 167.710938 244.34375 168.367188 243.804688 C 169.023438 243.265625 169.703125 242.757812 170.410156 242.285156 C 171.117188 241.8125 171.847656 241.378906 172.59375 240.976562 C 173.34375 240.578125 174.113281 240.214844 174.898438 239.890625 C 175.683594 239.5625 176.480469 239.277344 177.292969 239.03125 C 178.109375 238.785156 178.929688 238.578125 179.765625 238.414062 C 180.597656 238.246094 181.4375 238.121094 182.285156 238.039062 C 183.128906 237.957031 183.976562 237.914062 184.828125 237.914062 C 185.675781 237.914062 186.523438 237.957031 187.371094 238.039062 C 188.214844 238.121094 189.054688 238.246094 189.886719 238.414062 C 190.722656 238.578125 191.546875 238.785156 192.359375 239.03125 C 193.171875 239.277344 193.972656 239.5625 194.757812 239.890625 C 195.542969 240.214844 196.308594 240.578125 197.058594 240.976562 C 197.808594 241.378906 198.535156 241.8125 199.242188 242.285156 C 199.949219 242.757812 200.628906 243.265625 201.285156 243.804688 C 201.945312 244.34375 202.574219 244.914062 203.171875 245.511719 C 203.773438 246.113281 204.34375 246.742188 204.882812 247.398438 C 205.421875 248.058594 205.929688 248.738281 206.402344 249.445312 C 206.871094 250.152344 207.308594 250.878906 207.710938 251.628906 C 208.109375 252.378906 208.472656 253.144531 208.796875 253.929688 C 209.125 254.714844 209.410156 255.515625 209.65625 256.328125 C 209.902344 257.140625 210.109375 257.964844 210.273438 258.796875 C 210.441406 259.632812 210.566406 260.472656 210.648438 261.316406 C 210.730469 262.164062 210.773438 263.011719 210.773438 263.859375 Z M 210.773438 263.859375 "/></g><g clip-rule="nonzero" clip-path="url(#8f386738b6)"><path style=" stroke:none;fill-rule:nonzero;fill:#000000;fill-opacity:1;" d="M 284.003906 263.859375 C 284.003906 264.710938 283.960938 265.558594 283.878906 266.402344 C 283.796875 267.25 283.671875 268.089844 283.503906 268.921875 C 283.339844 269.757812 283.132812 270.578125 282.886719 271.394531 C 282.640625 272.207031 282.355469 273.003906 282.027344 273.789062 C 281.703125 274.574219 281.339844 275.34375 280.941406 276.09375 C 280.539062 276.839844 280.105469 277.570312 279.632812 278.277344 C 279.160156 278.984375 278.652344 279.664062 278.113281 280.320312 C 277.574219 280.976562 277.003906 281.605469 276.40625 282.207031 C 275.804688 282.808594 275.175781 283.378906 274.519531 283.917969 C 273.859375 284.457031 273.179688 284.960938 272.472656 285.433594 C 271.765625 285.90625 271.039062 286.34375 270.289062 286.742188 C 269.539062 287.144531 268.773438 287.507812 267.988281 287.832031 C 267.203125 288.15625 266.402344 288.445312 265.589844 288.691406 C 264.777344 288.9375 263.953125 289.144531 263.121094 289.308594 C 262.285156 289.476562 261.445312 289.597656 260.601562 289.683594 C 259.753906 289.765625 258.90625 289.808594 258.058594 289.808594 C 257.207031 289.808594 256.359375 289.765625 255.515625 289.683594 C 254.667969 289.597656 253.828125 289.476562 252.996094 289.308594 C 252.160156 289.144531 251.339844 288.9375 250.523438 288.691406 C 249.710938 288.445312 248.914062 288.15625 248.128906 287.832031 C 247.34375 287.507812 246.574219 287.144531 245.824219 286.742188 C 245.078125 286.34375 244.347656 285.90625 243.640625 285.433594 C 242.933594 284.960938 242.253906 284.457031 241.597656 283.917969 C 240.941406 283.378906 240.3125 282.808594 239.710938 282.207031 C 239.109375 281.605469 238.539062 280.976562 238 280.320312 C 237.460938 279.664062 236.957031 278.984375 236.484375 278.277344 C 236.011719 277.570312 235.574219 276.839844 235.175781 276.09375 C 234.773438 275.34375 234.410156 274.574219 234.085938 273.789062 C 233.761719 273.003906 233.472656 272.207031 233.226562 271.394531 C 232.980469 270.578125 232.773438 269.757812 232.609375 268.921875 C 232.441406 268.089844 232.320312 267.25 232.234375 266.402344 C 232.152344 265.558594 232.109375 264.710938 232.109375 263.859375 C 232.109375 263.011719 232.152344 262.164062 232.234375 261.316406 C 232.320312 260.472656 232.441406 259.632812 232.609375 258.796875 C 232.773438 257.964844 232.980469 257.140625 233.226562 256.328125 C 233.472656 255.515625 233.761719 254.714844 234.085938 253.929688 C 234.410156 253.144531 234.773438 252.378906 235.175781 251.628906 C 235.574219 250.878906 236.011719 250.152344 236.484375 249.445312 C 236.957031 248.738281 237.460938 248.058594 238 247.398438 C 238.539062 246.742188 239.109375 246.113281 239.710938 245.511719 C 240.3125 244.914062 240.941406 244.34375 241.597656 243.804688 C 242.253906 243.265625 242.933594 242.757812 243.640625 242.285156 C 244.347656 241.8125 245.078125 241.378906 245.824219 240.976562 C 246.574219 240.578125 247.34375 240.214844 248.128906 239.890625 C 248.914062 239.5625 249.710938 239.277344 250.523438 239.03125 C 251.339844 238.785156 252.160156 238.578125 252.996094 238.414062 C 253.828125 238.246094 254.667969 238.121094 255.515625 238.039062 C 256.359375 237.957031 257.207031 237.914062 258.058594 237.914062 C 258.90625 237.914062 259.753906 237.957031 260.601562 238.039062 C 261.445312 238.121094 262.285156 238.246094 263.121094 238.414062 C 263.953125 238.578125 264.777344 238.785156 265.589844 239.03125 C 266.402344 239.277344 267.203125 239.5625 267.988281 239.890625 C 268.773438 240.214844 269.539062 240.578125 270.289062 240.976562 C 271.039062 241.378906 271.765625 241.8125 272.472656 242.285156 C 273.179688 242.757812 273.859375 243.265625 274.519531 243.804688 C 275.175781 244.34375 275.804688 244.914062 276.40625 245.511719 C 277.003906 246.113281 277.574219 246.742188 278.113281 247.398438 C 278.652344 248.058594 279.160156 248.738281 279.632812 249.445312 C 280.105469 250.152344 280.539062 250.878906 280.941406 251.628906 C 281.339844 252.378906 281.703125 253.144531 282.027344 253.929688 C 282.355469 254.714844 282.640625 255.515625 282.886719 256.328125 C 283.132812 257.140625 283.339844 257.964844 283.503906 258.796875 C 283.671875 259.632812 283.796875 260.472656 283.878906 261.316406 C 283.960938 262.164062 284.003906 263.011719 284.003906 263.859375 Z M 284.003906 263.859375 "/></g><path style=" stroke:none;fill-rule:nonzero;fill:#000000;fill-opacity:1;" d="M 84.492188 126.625 L 143.886719 126.625 C 144.339844 126.625 144.789062 126.667969 145.238281 126.757812 C 145.683594 126.84375 146.113281 126.976562 146.535156 127.148438 C 146.953125 127.324219 147.351562 127.535156 147.730469 127.789062 C 148.109375 128.042969 148.457031 128.328125 148.777344 128.648438 C 149.101562 128.972656 149.386719 129.320312 149.640625 129.699219 C 149.890625 130.074219 150.105469 130.476562 150.277344 130.894531 C 150.453125 131.3125 150.585938 131.746094 150.671875 132.191406 C 150.761719 132.636719 150.804688 133.089844 150.804688 133.542969 L 150.804688 135.273438 C 150.804688 135.726562 150.761719 136.175781 150.671875 136.621094 C 150.585938 137.066406 150.453125 137.5 150.277344 137.921875 C 150.105469 138.339844 149.890625 138.738281 149.640625 139.117188 C 149.386719 139.492188 149.101562 139.84375 148.777344 140.164062 C 148.457031 140.484375 148.109375 140.773438 147.730469 141.023438 C 147.351562 141.277344 146.953125 141.492188 146.535156 141.664062 C 146.113281 141.839844 145.683594 141.96875 145.238281 142.058594 C 144.789062 142.148438 144.339844 142.191406 143.886719 142.191406 L 84.492188 142.191406 C 84.039062 142.191406 83.589844 142.148438 83.144531 142.058594 C 82.699219 141.96875 82.265625 141.839844 81.847656 141.664062 C 81.425781 141.492188 81.027344 141.277344 80.648438 141.023438 C 80.273438 140.773438 79.921875 140.484375 79.601562 140.164062 C 79.28125 139.84375 78.992188 139.492188 78.742188 139.117188 C 78.488281 138.738281 78.277344 138.339844 78.101562 137.921875 C 77.929688 137.5 77.796875 137.066406 77.707031 136.621094 C 77.621094 136.175781 77.574219 135.726562 77.574219 135.273438 L 77.574219 133.542969 C 77.574219 133.089844 77.621094 132.636719 77.707031 132.191406 C 77.796875 131.746094 77.929688 131.3125 78.101562 130.894531 C 78.277344 130.476562 78.488281 130.074219 78.742188 129.699219 C 78.992188 129.320312 79.28125 128.972656 79.601562 128.648438 C 79.921875 128.328125 80.273438 128.042969 80.648438 127.789062 C 81.027344 127.535156 81.425781 127.324219 81.847656 127.148438 C 82.265625 126.976562 82.699219 126.84375 83.144531 126.757812 C 83.589844 126.667969 84.039062 126.625 84.492188 126.625 Z M 84.492188 126.625 "/><path style=" stroke:none;fill-rule:nonzero;fill:#000000;fill-opacity:1;" d="M 84.492188 223.496094 L 143.886719 223.496094 C 144.339844 223.496094 144.789062 223.539062 145.238281 223.628906 C 145.683594 223.71875 146.113281 223.847656 146.535156 224.023438 C 146.953125 224.195312 147.351562 224.410156 147.730469 224.660156 C 148.109375 224.914062 148.457031 225.203125 148.777344 225.523438 C 149.101562 225.84375 149.386719 226.191406 149.640625 226.570312 C 149.890625 226.949219 150.105469 227.347656 150.277344 227.765625 C 150.453125 228.1875 150.585938 228.621094 150.671875 229.066406 C 150.761719 229.511719 150.804688 229.960938 150.804688 230.414062 L 150.804688 232.144531 C 150.804688 232.597656 150.761719 233.050781 150.671875 233.496094 C 150.585938 233.941406 150.453125 234.375 150.277344 234.792969 C 150.105469 235.210938 149.890625 235.613281 149.640625 235.988281 C 149.386719 236.367188 149.101562 236.714844 148.777344 237.039062 C 148.457031 237.359375 148.109375 237.644531 147.730469 237.898438 C 147.351562 238.152344 146.953125 238.363281 146.535156 238.539062 C 146.113281 238.710938 145.683594 238.84375 145.238281 238.929688 C 144.789062 239.019531 144.339844 239.0625 143.886719 239.0625 L 84.492188 239.0625 C 84.039062 239.0625 83.589844 239.019531 83.144531 238.929688 C 82.699219 238.84375 82.265625 238.710938 81.847656 238.539062 C 81.425781 238.363281 81.027344 238.152344 80.648438 237.898438 C 80.273438 237.644531 79.921875 237.359375 79.601562 237.039062 C 79.28125 236.714844 78.992188 236.367188 78.742188 235.988281 C 78.488281 235.613281 78.277344 235.210938 78.101562 234.792969 C 77.929688 234.375 77.796875 233.941406 77.707031 233.496094 C 77.621094 233.050781 77.574219 232.597656 77.574219 232.144531 L 77.574219 230.414062 C 77.574219 229.960938 77.621094 229.511719 77.707031 229.066406 C 77.796875 228.621094 77.929688 228.1875 78.101562 227.765625 C 78.277344 227.347656 78.488281 226.949219 78.742188 226.570312 C 78.992188 226.191406 79.28125 225.84375 79.601562 225.523438 C 79.921875 225.203125 80.273438 224.914062 80.648438 224.660156 C 81.027344 224.410156 81.425781 224.195312 81.847656 224.023438 C 82.265625 223.847656 82.699219 223.71875 83.144531 223.628906 C 83.589844 223.539062 84.039062 223.496094 84.492188 223.496094 Z M 84.492188 223.496094 "/><g clip-rule="nonzero" clip-path="url(#5bc3c9ba07)"><path style=" stroke:none;fill-rule:nonzero;fill:#000000;fill-opacity:1;" d="M 24.238281 173.90625 L 143.023438 173.90625 C 143.53125 173.90625 144.039062 173.957031 144.539062 174.054688 C 145.042969 174.15625 145.527344 174.304688 146 174.5 C 146.472656 174.695312 146.921875 174.933594 147.347656 175.21875 C 147.769531 175.503906 148.164062 175.824219 148.527344 176.1875 C 148.886719 176.546875 149.210938 176.941406 149.492188 177.367188 C 149.777344 177.792969 150.019531 178.238281 150.214844 178.710938 C 150.410156 179.183594 150.554688 179.671875 150.65625 180.171875 C 150.757812 180.675781 150.804688 181.179688 150.804688 181.691406 C 150.804688 182.203125 150.757812 182.707031 150.65625 183.210938 C 150.554688 183.710938 150.410156 184.199219 150.214844 184.671875 C 150.019531 185.140625 149.777344 185.589844 149.492188 186.015625 C 149.210938 186.441406 148.886719 186.832031 148.527344 187.195312 C 148.164062 187.558594 147.769531 187.878906 147.347656 188.164062 C 146.921875 188.449219 146.472656 188.6875 146 188.882812 C 145.527344 189.078125 145.042969 189.226562 144.539062 189.324219 C 144.039062 189.425781 143.53125 189.476562 143.023438 189.476562 L 24.238281 189.476562 C 23.726562 189.476562 23.21875 189.425781 22.71875 189.324219 C 22.21875 189.226562 21.730469 189.078125 21.257812 188.882812 C 20.785156 188.6875 20.335938 188.449219 19.914062 188.164062 C 19.488281 187.878906 19.09375 187.558594 18.734375 187.195312 C 18.371094 186.832031 18.046875 186.441406 17.765625 186.015625 C 17.480469 185.589844 17.242188 185.140625 17.046875 184.671875 C 16.847656 184.199219 16.703125 183.710938 16.601562 183.210938 C 16.503906 182.707031 16.453125 182.203125 16.453125 181.691406 C 16.453125 181.179688 16.503906 180.675781 16.601562 180.171875 C 16.703125 179.671875 16.847656 179.183594 17.046875 178.710938 C 17.242188 178.238281 17.480469 177.792969 17.765625 177.367188 C 18.046875 176.941406 18.371094 176.546875 18.734375 176.1875 C 19.09375 175.824219 19.488281 175.503906 19.914062 175.21875 C 20.335938 174.933594 20.785156 174.695312 21.257812 174.5 C 21.730469 174.304688 22.21875 174.15625 22.71875 174.054688 C 23.21875 173.957031 23.726562 173.90625 24.238281 173.90625 Z M 24.238281 173.90625 "/></g></g></svg>